# xmcd
#
# Track frame offsets:
#	150
#	15991
#	37136
#	52181
#	70832
#	91222
#	109980
#	127813
#	147122
#	163216
#	182468
#	201847
#	215439
#
# Disc length: 3125 seconds
#
# Revision: 1
# Processed by: cddbd v1.5.2PL0 Copyright (c) Steve Scherf et al.
# Submitted via: audiograbber 1.83.01
#
DISCID=b70c330d
DTITLE=PAIXAO SERTANEJA-3 - PAIXAO SERTANEJA-3
DYEAR=2009
DGENRE=Country
TTITLE0=Porta-Retrato - Edson and Hudson
TTITLE1=Sinonimos - Chitaozinho and Xororo
TTITLE2=Nao Posso Ter Medo de Amar - Bruno and Marrone
TTITLE3=Pare - Zeze Di Camargo and Luciano
TTITLE4=Separacao - Eduardo Costa
TTITLE5=Dificil Nao Falar de Amor - Daniel
TTITLE6=Amor Alem da Vida - Cezar and Paulinho
TTITLE7=Eu Busco uma Estrela - Gia
TTITLE8=Ela e Demais - Rick and Renner
TTITLE9=Cheiro de Shampoo - Chrystian and Ralf
TTITLE10=A Mulher em Mim - Roberta Miranda
TTITLE11=So Da Voce na Minha Vida - Joao Paulo and Daniel
TTITLE12=A Carta - Milionario and Jose Rico
EXTD=
EXTT0=
EXTT1=
EXTT2=
EXTT3=
EXTT4=
EXTT5=
EXTT6=
EXTT7=
EXTT8=
EXTT9=
EXTT10=
EXTT11=
EXTT12=
PLAYORDER=
